<?xml version="1.0" encoding="UTF-8" standalone="no"?>
<!-- Created with Inkscape (http://www.inkscape.org/) -->

<svg
   xmlns:dc="http://purl.org/dc/elements/1.1/"
   xmlns:cc="http://creativecommons.org/ns#"
   xmlns:rdf="http://www.w3.org/1999/02/22-rdf-syntax-ns#"
   xmlns:svg="http://www.w3.org/2000/svg"
   xmlns="http://www.w3.org/2000/svg"
   xmlns:xlink="http://www.w3.org/1999/xlink"
   xmlns:sodipodi="http://sodipodi.sourceforge.net/DTD/sodipodi-0.dtd"
   xmlns:inkscape="http://www.inkscape.org/namespaces/inkscape"
   width="30mm"
   height="30mm"
   viewBox="0 0 106.29921 106.29921"
   id="svg2"
   version="1.1"
   inkscape:version="0.91 r13725"
   sodipodi:docname="Strumpf-coloured.svg">
  <title
     id="title4148">sock - coloured</title>
  <defs
     id="defs4">
    <linearGradient
       inkscape:collect="always"
       id="linearGradient5771">
      <stop
         style="stop-color:#9b9bff;stop-opacity:1"
         offset="0"
         id="stop5773" />
      <stop
         id="stop5783"
         offset="0.14178324"
         style="stop-color:#6b6bff;stop-opacity:1" />
      <stop
         id="stop5781"
         offset="0.30144155"
         style="stop-color:#4c4cff;stop-opacity:1;" />
      <stop
         id="stop5779"
         offset="0.51657122"
         style="stop-color:#4c4cff;stop-opacity:1;" />
      <stop
         style="stop-color:#2525c8;stop-opacity:1"
         offset="1"
         id="stop5775" />
    </linearGradient>
    <pattern
       inkscape:collect="always"
       xlink:href="#Polkadots-large"
       id="pattern5692"
       patternTransform="matrix(1.3381037,0,0,1.4884584,0.45946238,-16.627455)" />
    <pattern
       inkscape:stockid="Polka dots, large"
       id="Polkadots-large"
       patternTransform="translate(0,0) scale(10,10)"
       height="10"
       width="10"
       patternUnits="userSpaceOnUse"
       inkscape:collect="always">
      <circle
         id="circle5382"
         r="0.45"
         cy="0.810"
         cx="2.567"
         style="fill:black;stroke:none" />
      <circle
         id="circle5384"
         r="0.45"
         cy="2.33"
         cx="3.048"
         style="fill:black;stroke:none" />
      <circle
         id="circle5386"
         r="0.45"
         cy="2.415"
         cx="4.418"
         style="fill:black;stroke:none" />
      <circle
         id="circle5388"
         r="0.45"
         cy="3.029"
         cx="1.844"
         style="fill:black;stroke:none" />
      <circle
         id="circle5390"
         r="0.45"
         cy="1.363"
         cx="6.08"
         style="fill:black;stroke:none" />
      <circle
         id="circle5392"
         r="0.45"
         cy="4.413"
         cx="5.819"
         style="fill:black;stroke:none" />
      <circle
         id="circle5394"
         r="0.45"
         cy="4.048"
         cx="4.305"
         style="fill:black;stroke:none" />
      <circle
         id="circle5396"
         r="0.45"
         cy="3.045"
         cx="5.541"
         style="fill:black;stroke:none" />
      <circle
         id="circle5398"
         r="0.45"
         cy="5.527"
         cx="4.785"
         style="fill:black;stroke:none" />
      <circle
         id="circle5400"
         r="0.45"
         cy="5.184"
         cx="2.667"
         style="fill:black;stroke:none" />
      <circle
         id="circle5402"
         r="0.45"
         cy="1.448"
         cx="7.965"
         style="fill:black;stroke:none" />
      <circle
         id="circle5404"
         r="0.45"
         cy="5.049"
         cx="7.047"
         style="fill:black;stroke:none" />
      <circle
         id="circle5406"
         r="0.45"
         cy="0.895"
         cx="4.340"
         style="fill:black;stroke:none" />
      <circle
         id="circle5408"
         r="0.45"
         cy="0.340"
         cx="7.125"
         style="fill:black;stroke:none" />
      <circle
         id="circle5410"
         r="0.45"
         cy="1.049"
         cx="9.553"
         style="fill:black;stroke:none" />
      <circle
         id="circle5412"
         r="0.45"
         cy="2.689"
         cx="7.006"
         style="fill:black;stroke:none" />
      <circle
         id="circle5414"
         r="0.45"
         cy="2.689"
         cx="8.909"
         style="fill:black;stroke:none" />
      <circle
         id="circle5416"
         r="0.45"
         cy="4.407"
         cx="9.315"
         style="fill:black;stroke:none" />
      <circle
         id="circle5418"
         r="0.45"
         cy="3.870"
         cx="7.820"
         style="fill:black;stroke:none" />
      <circle
         id="circle5420"
         r="0.45"
         cy="5.948"
         cx="8.270"
         style="fill:black;stroke:none" />
      <circle
         id="circle5422"
         r="0.45"
         cy="7.428"
         cx="7.973"
         style="fill:black;stroke:none" />
      <circle
         id="circle5424"
         r="0.45"
         cy="8.072"
         cx="9.342"
         style="fill:black;stroke:none" />
      <circle
         id="circle5426"
         r="0.45"
         cy="9.315"
         cx="8.206"
         style="fill:black;stroke:none" />
      <circle
         id="circle5428"
         r="0.45"
         cy="9.475"
         cx="9.682"
         style="fill:black;stroke:none" />
      <circle
         id="circle5430"
         r="0.45"
         cy="6.186"
         cx="9.688"
         style="fill:black;stroke:none" />
      <circle
         id="circle5432"
         r="0.45"
         cy="6.296"
         cx="3.379"
         style="fill:black;stroke:none" />
      <circle
         id="circle5434"
         r="0.45"
         cy="8.204"
         cx="2.871"
         style="fill:black;stroke:none" />
      <circle
         id="circle5436"
         r="0.45"
         cy="8.719"
         cx="4.59"
         style="fill:black;stroke:none" />
      <circle
         id="circle5438"
         r="0.45"
         cy="9.671"
         cx="3.181"
         style="fill:black;stroke:none" />
      <circle
         id="circle5440"
         r="0.45"
         cy="7.315"
         cx="5.734"
         style="fill:black;stroke:none" />
      <circle
         id="circle5442"
         r="0.45"
         cy="6.513"
         cx="6.707"
         style="fill:black;stroke:none" />
      <circle
         id="circle5444"
         r="0.45"
         cy="9.670"
         cx="5.730"
         style="fill:black;stroke:none" />
      <circle
         id="circle5446"
         r="0.45"
         cy="8.373"
         cx="6.535"
         style="fill:black;stroke:none" />
      <circle
         id="circle5448"
         r="0.45"
         cy="7.154"
         cx="4.37"
         style="fill:black;stroke:none" />
      <circle
         id="circle5450"
         r="0.45"
         cy="7.25"
         cx="0.622"
         style="fill:black;stroke:none" />
      <circle
         id="circle5452"
         r="0.45"
         cy="5.679"
         cx="0.831"
         style="fill:black;stroke:none" />
      <circle
         id="circle5454"
         r="0.45"
         cy="8.519"
         cx="1.257"
         style="fill:black;stroke:none" />
      <circle
         id="circle5456"
         r="0.45"
         cy="6.877"
         cx="1.989"
         style="fill:black;stroke:none" />
      <circle
         id="circle5458"
         r="0.45"
         cy="3.181"
         cx="0.374"
         style="fill:black;stroke:none" />
      <circle
         id="circle5460"
         r="0.45"
         cy="1.664"
         cx="1.166"
         style="fill:black;stroke:none" />
      <circle
         id="circle5462"
         r="0.45"
         cy="0.093"
         cx="1.151"
         style="fill:black;stroke:none" />
      <circle
         id="circle5464"
         r="0.45"
         cy="10.093"
         cx="1.151"
         style="fill:black;stroke:none" />
      <circle
         id="circle5466"
         r="0.45"
         cy="4.451"
         cx="1.302"
         style="fill:black;stroke:none" />
      <circle
         id="circle5468"
         r="0.45"
         cy="3.763"
         cx="3.047"
         style="fill:black;stroke:none" />
    </pattern>
    <radialGradient
       inkscape:collect="always"
       xlink:href="#linearGradient5771"
       id="radialGradient5777"
       cx="55.24115"
       cy="62.348808"
       fx="55.24115"
       fy="62.348808"
       r="52.199442"
       gradientTransform="matrix(0.11141445,0.54449563,-1.3406419,0.27432156,132.52613,17.962173)"
       gradientUnits="userSpaceOnUse" />
  </defs>
  <sodipodi:namedview
     id="base"
     pagecolor="#ffffff"
     bordercolor="#666666"
     borderopacity="1.0"
     inkscape:pageopacity="0.0"
     inkscape:pageshadow="2"
     inkscape:zoom="0.55503704"
     inkscape:cx="55.800408"
     inkscape:cy="50.110739"
     inkscape:document-units="mm"
     inkscape:current-layer="layer2"
     showgrid="false"
     inkscape:showpageshadow="true"
     borderlayer="true"
     inkscape:window-width="1374"
     inkscape:window-height="1087"
     inkscape:window-x="1327"
     inkscape:window-y="154"
     inkscape:window-maximized="0"
     inkscape:snap-global="false" />
  <metadata
     id="metadata7">
    <rdf:RDF>
      <cc:Work
         rdf:about="">
        <dc:format>image/svg+xml</dc:format>
        <dc:type
           rdf:resource="http://purl.org/dc/dcmitype/StillImage" />
        <dc:title>sock - coloured</dc:title>
        <cc:license
           rdf:resource="http://creativecommons.org/publicdomain/zero/1.0/" />
        <dc:description>coloured line art sock</dc:description>
        <dc:subject>
          <rdf:Bag>
            <rdf:li>stocking</rdf:li>
            <rdf:li>sock</rdf:li>
            <rdf:li>school</rdf:li>
            <rdf:li>teaching</rdf:li>
            <rdf:li>clothes</rdf:li>
            <rdf:li>Strumpf</rdf:li>
            <rdf:li>Socke</rdf:li>
            <rdf:li>Schule</rdf:li>
            <rdf:li>Unterricht</rdf:li>
            <rdf:li>Kleidung</rdf:li>
            <rdf:li>education</rdf:li>
            <rdf:li>lineart</rdf:li>
            <rdf:li></rdf:li>
          </rdf:Bag>
        </dc:subject>
        <dc:date>2016-10-16</dc:date>
        <dc:creator>
          <cc:Agent>
            <dc:title>Frank Tremmel</dc:title>
          </cc:Agent>
        </dc:creator>
      </cc:Work>
      <cc:License
         rdf:about="http://creativecommons.org/publicdomain/zero/1.0/">
        <cc:permits
           rdf:resource="http://creativecommons.org/ns#Reproduction" />
        <cc:permits
           rdf:resource="http://creativecommons.org/ns#Distribution" />
        <cc:permits
           rdf:resource="http://creativecommons.org/ns#DerivativeWorks" />
      </cc:License>
    </rdf:RDF>
  </metadata>
  <g
     inkscape:groupmode="layer"
     id="layer2"
     inkscape:label="Ebene 2"
     style="display:inline">
    <path
       style="fill:url(#radialGradient5777);fill-rule:evenodd;stroke:#ffcc00;stroke-width:0.33034465;stroke-linecap:butt;stroke-linejoin:miter;stroke-miterlimit:4;stroke-dasharray:none;stroke-opacity:1;fill-opacity:1"
       d="m 1.3288947,26.263701 c 2.5286921,-3.901358 6.1786687,-6.992264 10.0854143,-9.897578 5.042708,-4.897187 10.085416,-6.703328 15.128124,-9.2377381 1.013392,0.1024622 2.0762,-0.2236836 2.869126,1.7909905 1.161577,3.3331426 0.576592,4.7726886 0.173887,6.4098586 l 12.085109,27.241903 10.893565,22.653342 5.743233,0.807853 5.523769,3.225824 c 6.955458,-0.534265 13.629405,-1.082302 20.584864,-0.229037 l 11.178521,3.681343 c 4.468333,3.016405 5.717583,4.73785 7.284083,7.754255 1.70254,1.856391 2.80956,3.354083 2.43441,3.959031 -0.81813,1.745133 -1.84821,3.030672 -3.12996,3.770506 -3.311911,3.080536 -5.359254,7.189348 -11.215671,8.200849 -3.746591,1.434761 -7.352925,1.957137 -10.867905,1.885252 l -22.60524,-0.848363 -21.388036,2.733618 c -5.020891,-0.525683 -6.020479,-5.181993 -8.694323,-8.483639 -1.19077,-5.095362 -1.7539,-10.632589 -1.825809,-16.213173 L 20.891122,60.198251 12.109856,44.644915 6.7193752,32.390772 C 1.724023,30.970703 1.8120361,28.417582 1.3288947,26.263701 Z"
       id="path4209"
       inkscape:connector-curvature="0"
       sodipodi:nodetypes="cccccccccccccccccccccccc" />
    <path
       style="fill:url(#pattern5692);fill-opacity:1;fill-rule:evenodd;stroke:none;stroke-width:0.29055119;stroke-linecap:butt;stroke-linejoin:miter;stroke-miterlimit:4;stroke-dasharray:none;stroke-opacity:1;opacity:0.304"
       d="m 26.368546,76.411424 c 0,0 1.454836,10.015435 5.216593,13.573819 2.792709,2.641725 6.442429,5.480507 10.943232,3.612783 3.180604,-1.319873 6.893566,-2.092409 9.923144,-2.10458 10.970096,-0.04408 22.112625,4.245918 32.864543,1.885252 4.547914,-0.998528 8.838742,-3.535416 12.519825,-6.598384 0.912701,-0.759444 2.260527,-2.827879 2.260527,-2.827879 0.80948,-0.630572 0.67469,-0.965234 4.17327,1.319677 0,0 -1.50701,1.822411 -2.60829,3.016405 -2.144604,2.325144 -3.652863,4.164008 -6.259917,5.844283 -2.285911,1.473295 -5.190065,3.191562 -7.824891,3.581981 -7.351719,1.089348 -14.841294,-0.637413 -22.257468,-0.377052 -8.659786,0.304021 -17.481944,1.882989 -26.08297,3.016401 -3.406046,0.44884 -7.568523,-0.960914 -10.433188,-4.336077 -1.837559,-2.165022 -2.311345,-5.39756 -2.782183,-8.295112 -0.331867,-2.042327 0.347773,-11.311517 0.347773,-11.311517 z"
       id="path4211"
       inkscape:connector-curvature="0"
       sodipodi:nodetypes="csssssccsssssssc" />
    <path
       style="color:#000000;font-style:normal;font-variant:normal;font-weight:normal;font-stretch:normal;font-size:medium;line-height:normal;font-family:sans-serif;text-indent:0;text-align:start;text-decoration:none;text-decoration-line:none;text-decoration-style:solid;text-decoration-color:#000000;letter-spacing:normal;word-spacing:normal;text-transform:none;direction:ltr;block-progression:tb;writing-mode:lr-tb;baseline-shift:baseline;text-anchor:start;white-space:normal;clip-rule:nonzero;display:inline;overflow:visible;visibility:visible;opacity:1;isolation:auto;mix-blend-mode:normal;color-interpolation:sRGB;color-interpolation-filters:linearRGB;solid-color:#000000;solid-opacity:1;fill:#26266c;fill-opacity:1;fill-rule:evenodd;stroke:none;stroke-width:1.41732287;stroke-linecap:butt;stroke-linejoin:miter;stroke-miterlimit:4;stroke-dasharray:none;stroke-dashoffset:0;stroke-opacity:1;color-rendering:auto;image-rendering:auto;shape-rendering:auto;text-rendering:auto;enable-background:accumulate"
       d="m 23.272586,9.4264844 c 1.731356,1.8864866 1.91302,4.0175116 1.966318,6.5689786 -0.69958,0.423713 -1.363388,0.84274 -2.139063,1.327206 -0.405394,-1.313551 -0.775968,-2.398994 -1.226283,-3.253273 -0.579937,-1.100182 -1.316818,-1.935909 -2.371524,-2.830142 -0.661652,0.529432 -0.98408,0.821717 -0.953302,1.322583 0.968331,0.820998 1.507417,1.441064 1.981246,2.339952 0.398643,0.756255 0.768228,1.842356 1.207089,3.285645 -0.89598,0.573027 -1.7571,1.124697 -2.591189,1.694848 -1.298079,-2.490065 -1.946393,-3.850212 -3.039048,-5.644095 -0.551268,0.144082 -0.895132,0.608818 -1.292396,0.924882 1.06471,1.748004 1.689515,3.07122 3.028386,5.634846 -0.384561,0.278194 -0.782624,0.562622 -1.113251,0.820834 -1.064853,0.83162 -2.392901,2.036814 -3.762023,3.331889 -0.41822,-0.368855 -1.605704,-1.725991 -2.610382,-2.957312 -0.5078703,-0.62244 -1.1981,-1.555691 -1.5459573,-2.007307 -0.6637322,0.314203 -0.9516505,0.63192 -1.1878948,1.075177 0.3605894,0.468145 1.0567057,1.410701 1.5736815,2.044301 0.9389176,1.150726 1.9173406,2.312479 2.6125156,2.971186 -0.990577,0.960328 -1.889929,1.833439 -2.7639349,2.716842 L 4.7461202,23.100873 c -0.1468174,-0.200144 -0.3698087,-0.31677 -0.6056769,-0.316772 -0.6561257,0.0021 -1.0122855,0.832942 -0.5907485,1.378074 l 4.363434,5.785141 C 6.604633,31.288249 5.5757272,32.361258 5.5757272,32.361258 l 1.0791288,1.202348 c 0,0 1.3976472,-1.422746 2.2840849,-2.335328 1.2329471,1.524072 2.4800781,2.979464 3.4058671,4.580481 1.562135,2.701485 2.277783,6.100008 3.921971,9.172522 1.642188,3.068769 4.210001,5.402607 5.612951,8.209688 1.518059,3.037393 1.908331,6.526542 3.426538,9.93077 1.225172,2.747166 3.856741,7.407878 4.131854,7.88111 0.550228,0.946463 1.244903,0.351581 0.694676,-0.594882 -0.275113,-0.473231 -2.521943,-5.16107 -3.64694,-7.683616 -1.397291,-3.133102 -1.787872,-6.950782 -3.46066,-10.297766 -1.56606,-3.133436 -3.936022,-5.511515 -5.421237,-8.286948 -1.484563,-2.774217 -2.198017,-6.197803 -3.947563,-9.223391 -1.048672,-1.813522 -2.372133,-3.325551 -3.597808,-4.834823 0.987639,-1.000856 1.700092,-1.695375 2.851375,-2.811642 1.339231,1.788877 2.053241,4.399092 3.075303,6.839506 1.140471,2.723142 1.517816,6.00205 2.970803,8.978296 1.756716,3.59839 4.627355,6.184671 6.282833,9.352875 1.381644,2.644146 2.13366,5.756961 3.414397,8.737827 1.129476,2.628808 3.565711,7.037944 3.798052,7.537237 0.474375,1.019412 1.387606,0.611323 0.875215,-0.386228 -0.250962,-0.488584 -2.554716,-5.268634 -3.63884,-7.79189 -1.200788,-2.794783 -1.58799,-6.025124 -3.103112,-8.924716 -1.843903,-3.528805 -4.694962,-6.106776 -6.259374,-9.311254 -1.276085,-2.613889 -1.658838,-5.849939 -2.930281,-8.88581 -0.954333,-2.27869 -1.650455,-5.128695 -3.324826,-7.2742 1.32256,-1.252009 2.219068,-2.234432 3.194815,-2.996464 0.291541,-0.227687 1.022437,-0.649195 1.364824,-0.897291 0.393819,0.635701 3.014316,4.884359 3.853726,7.281137 0.986302,2.816202 1.102456,6.468916 3.354684,9.073098 1.936759,2.239417 3.14065,5.272339 4.551107,8.212956 1.094036,2.28092 2.702269,5.241214 4.039243,8.274402 2.322125,5.268194 4.259893,10.487453 4.383085,10.816617 0.388202,1.037263 1.116294,0.90602 0.728285,-0.131328 -0.194024,-0.518726 -4.692757,-13.303674 -7.777175,-19.73428 -1.372002,-2.860444 -2.605877,-6.054892 -4.794233,-8.585222 -1.746486,-2.019408 -1.928229,-5.351054 -3.039048,-8.522792 -0.949182,-2.710209 -3.395252,-6.655037 -3.994483,-7.604846 0.737636,-0.503264 1.504997,-0.996876 2.307544,-1.512183 2.015932,6.683556 5.400595,15.733901 9.20885,20.997144 3.150872,4.354696 3.923641,10.829617 6.43212,16.254811 0.664459,1.437056 1.894939,2.802726 2.642659,4.326783 0.747722,1.524057 0.963678,3.285677 0.963678,3.828368 0,1.119107 0.779839,1.085781 0.779839,-0.03333 0,-1.323615 0.09146,-2.703241 -0.683869,-4.283562 -0.775325,-1.580323 -2.066345,-3.047285 -2.687075,-4.389769 -2.334943,-5.049877 -2.709767,-11.874548 -6.2296,-16.739173 -3.605521,-4.983052 -7.088863,-14.221911 -9.061696,-20.826042 0.622021,-0.389924 1.133365,-0.724123 1.718929,-1.082112 0.290961,3.540564 1.659287,7.701214 4.19282,10.726325 2.615838,3.123383 4.982952,9.215374 6.890643,13.281313 2.051552,4.372553 2.532338,8.712271 4.802763,13.343742 1.402412,2.860797 4.425233,7.167758 4.71032,7.634037 0.570147,0.932513 1.337759,0.471956 0.767698,-0.460618 -0.285045,-0.46631 -3.047482,-5.124166 -4.356892,-7.795247 -2.120091,-4.324804 -2.354027,-8.81494 -4.544055,-13.482631 -1.853915,-3.951324 -4.163894,-10.11303 -7.125236,-13.648954 -2.415531,-2.884215 -3.721069,-7.208911 -3.838798,-10.492792 1.305455,-0.778036 3.013457,-1.798897 3.013457,-1.798897 l -0.725106,-1.482124 c 0,0 -1.031499,0.603939 -2.360861,1.39426 -0.107915,-2.390069 -0.496253,-4.786892 -2.384321,-6.8441302 -0.844325,0.018669 -1.085103,0.6058067 -1.09619,1.1838496 z"
       id="path4171"
       inkscape:connector-curvature="0"
       sodipodi:nodetypes="cccsccscccccscsccscccccccccssssssssssccsssssssssscscsssssssssccssssssssccsssssssscccccc" />
    <path
       style="color:#000000;font-style:normal;font-variant:normal;font-weight:normal;font-stretch:normal;font-size:medium;line-height:normal;font-family:sans-serif;text-indent:0;text-align:start;text-decoration:none;text-decoration-line:none;text-decoration-style:solid;text-decoration-color:#000000;letter-spacing:normal;word-spacing:normal;text-transform:none;direction:ltr;block-progression:tb;writing-mode:lr-tb;baseline-shift:baseline;text-anchor:start;white-space:normal;clip-rule:nonzero;display:inline;overflow:visible;visibility:visible;opacity:1;isolation:auto;mix-blend-mode:normal;color-interpolation:sRGB;color-interpolation-filters:linearRGB;solid-color:#000000;solid-opacity:1;fill:#000080;fill-opacity:1;fill-rule:evenodd;stroke:none;stroke-width:2.83464575;stroke-linecap:butt;stroke-linejoin:round;stroke-miterlimit:4;stroke-dasharray:none;stroke-dashoffset:0;stroke-opacity:1;color-rendering:auto;image-rendering:auto;shape-rendering:auto;text-rendering:auto;enable-background:accumulate"
       d="m 26.623005,6.3327528 c -0.474807,0.015307 -0.935325,0.094815 -1.379835,0.1896018 -1.451432,0.309495 -3.130978,1.2451931 -5.286878,2.5434263 -2.155901,1.2982331 -4.642502,2.9649951 -7.065521,4.7099641 -2.423019,1.74497 -4.7764501,3.566035 -6.6667134,5.183967 -1.8902634,1.617931 -2.9896915,3.027581 -4.0222074,4.217464 -1.49741365,1.725636 -1.9078447,2.35629 -1.84341603,3.591771 0.0644287,1.235481 0.62859976,2.435051 0.92934613,3.149384 0.6589539,1.565151 3.0201548,2.359452 4.5686152,3.15385 2.688337,6.156716 4.5280145,12.505043 8.3141745,18.062041 4.258144,6.249742 6.508813,11.118556 8.202031,15.87776 0.624563,1.755485 1.372619,3.736098 1.657082,5.234835 0.361723,1.905792 0.392279,4.044554 0.586483,6.328508 0.294735,3.466256 -0.407851,7.617649 0.942638,11.739071 1.244107,3.796764 3.004267,8.465807 6.892775,10.656964 3.930979,2.21508 8.231241,0.35477 11.42469,0.0509 4.249201,-0.40438 8.146157,-1.780487 11.923734,-2.13417 8.945237,-0.837517 21.463266,1.20625 31.070805,-0.277465 2.738436,-0.422903 5.71672,-0.977957 8.40057,-2.591983 3.085924,-1.855828 5.140032,-4.796582 7.234002,-7.0846 0.37553,-0.41033 1.1253,-0.9427 1.89167,-1.648603 0.76638,-0.705905 1.67481,-1.766044 1.75092,-3.308767 0.0394,-0.799075 -0.26134,-1.525019 -0.58435,-1.997747 -0.323,-0.472727 -0.66379,-0.779245 -0.94477,-1.040493 -0.56195,-0.522494 -0.73729,-0.856682 -0.71018,-0.705223 -0.67094,-3.747645 -2.17777,-3.886259 -4.075521,-5.794952 -1.897752,-1.908692 -4.392184,-3.246044 -6.517426,-4.360936 -4.959064,-2.601511 -12.240787,-2.86091 -18.59855,-2.811528 -6.009189,0.04668 -10.442779,1.061755 -10.973313,1.124632 -0.784572,-0.729087 -2.37933,-2.408697 -3.916689,-3.216522 -1.59004,-0.835505 -3.574097,-1.308764 -6.561568,-1.297147 C 52.753043,62.974029 47.896692,52.187221 45.397207,47.278887 43.374804,43.307415 41.954812,38.877826 40.088655,34.756705 39.005039,32.363704 36.767765,29.33592 35.387932,26.158838 32.869298,20.35965 31.281517,14.502639 31.157051,14.21044 31.538344,12.039514 31.260784,10.162859 30.598292,8.8484332 30.018614,7.6983103 29.097018,6.8482766 28.090279,6.5269787 27.586908,6.3663291 27.097811,6.317442 26.623005,6.3327528 Z m 0.984124,2.3311087 c 0.935316,0.2645312 0.592058,0.7458028 0.839279,1.6524725 0.272399,0.999013 0.153037,1.94337 -0.334803,3.787744 -0.101986,0.386704 -0.07247,0.800261 0.08317,1.165352 0,0 5.958286,13.993626 9.115013,20.964775 1.865897,4.120548 4.090764,7.800394 6.161419,11.866619 2.721793,5.34489 7.900184,17.324585 8.174359,17.806396 0.294415,0.51738 0.823919,0.822069 1.3841,0.7954 3.223595,-0.153472 5.055418,0.356792 6.316956,1.019683 1.261536,0.662889 2.32235,1.236176 3.100895,2.480997 0.321077,0.513373 0.77416,0.594444 1.747447,0.356079 0.385375,-0.09438 4.47767,-0.62255 10.656136,-0.670539 4.986204,-0.03874 10.67629,0.384387 14.755914,1.623169 -0.01361,0.858239 -0.04956,2.102306 -0.181277,3.79433 -0.205373,2.638241 -0.677176,3.964741 -1.42462,5.576569 -0.07999,0.172508 -0.179099,1.266167 -0.803544,1.77131 -0.624446,0.505142 -1.887295,0.448814 -1.934799,0.45072 -5.428113,0.217855 -10.499236,0.437575 -16.454333,0.25254 -5.792467,-0.179977 -11.528921,0.06073 -17.000792,-1.179225 -2.068524,-0.468739 -4.82205,-0.855604 -6.824679,-1.320969 C 42.980344,80.39192 41.46627,79.142105 40.878086,77.603501 39.677762,74.46361 38.061829,68.729548 35.612187,63.915937 33.890787,60.533338 32.562288,57.449639 30.391422,50.618439 29.110717,46.588366 27.171895,42.994546 24.383703,39.954544 23.313059,38.787206 22.746664,37.153596 22.263834,35.279263 21.781003,33.404931 21.397194,31.32585 20.502252,29.420132 19.495062,27.27539 18.896026,23.924235 16.309431,22.32166 c -0.622048,-0.385403 -1.602427,-1.747816 -2.27982,-3.003557 -0.357339,-0.66243 -0.636121,-1.253958 -0.833872,-1.694846 0.47432,-0.35196 -0.01704,-0.0261 1.40756,-1.052054 1.424604,-1.025947 4.800625,-3.333219 6.85652,-4.571232 2.055894,-1.238013 2.829035,-2.1420267 3.815364,-2.5149535 0.46546,-0.1759887 1.888334,-0.9466203 2.331946,-0.821156 z M 11.591976,18.820979 c 0.206511,0.448692 0.449176,0.965527 0.767761,1.556114 0.742109,1.375716 1.666769,2.944441 2.989997,3.764273 1.600336,0.991519 2.248511,3.71693 3.429326,6.231396 0.731536,1.557756 1.113411,3.500912 1.620826,5.47068 0.507414,1.969767 1.155503,4.002315 2.612516,5.590914 2.568286,2.800237 4.348444,6.087704 5.549195,9.866184 2.191909,6.897417 3.595438,10.172623 5.355124,13.630456 1.940132,3.812411 3.555422,8.23651 4.794232,11.581841 -0.690429,6.461195 -3.301057,9.967574 -5.798718,13.371489 -1.349606,1.839298 -0.896363,2.611166 1.014679,0.815698 1.461432,-1.37305 2.912157,-3.52164 4.125851,-5.884169 0.933799,-1.817697 1.482126,-3.946956 1.980937,-6.195656 1.107287,1.645809 3.031462,3.620048 4.891838,4.052355 2.241272,0.52082 4.670537,0.629228 6.485436,1.040493 5.7845,1.310795 11.683066,1.043667 17.385491,1.220845 5.926082,0.184131 11.001397,0.490458 16.538822,0.268216 0.995104,-0.03994 1.933284,-0.141183 2.713892,-0.772653 0.780607,-0.631471 1.290749,-1.767377 1.679399,-2.605481 1.020412,-2.200466 1.409603,-3.601116 1.622958,-6.341908 0.09968,-1.280512 0.142685,-2.406681 0.168481,-3.294894 0.253815,0.111531 0.498254,0.225588 0.729372,0.346832 2.106112,1.104859 4.009215,2.154401 5.478818,3.632475 1.469603,1.478075 2.753881,0.805274 3.317431,3.953078 0.2677,1.495262 1.58026,2.238578 2.08163,2.704743 0.20563,0.191187 1.08557,0.661222 1.08156,1.253001 -0.008,1.127125 -1.12207,1.48394 -1.59912,1.923351 -0.52965,0.487852 -1.81297,1.165986 -2.56181,1.984221 -2.279108,2.490324 -3.934446,3.690217 -6.277919,5.099546 -2.081777,1.25195 -4.505699,2.926704 -7.162483,3.336996 -8.81462,1.361263 -21.349792,-1.162347 -30.943663,-0.264101 -4.251157,0.398023 -8.279866,1.161871 -12.058414,1.52146 -3.829519,0.364437 -6.922225,0.684011 -9.246768,-0.625854 C 31.811564,95.61765 29.529781,92.897965 28.345875,89.284927 27.355996,86.264017 27.479777,82.584862 27.132736,78.503459 26.956309,76.428572 26.67602,74.195376 26.227843,71.81282 25.854113,69.826038 25.331873,67.841027 24.749235,66.162675 23.137836,61.520867 21.378036,55.762067 16.833275,49.091657 13.05917,43.552346 10.412215,38.4293 7.757122,32.263392 7.6020379,31.902576 7.2467526,31.377626 6.9130823,31.211527 5.2289439,30.373555 4.1446709,29.373988 3.8442018,29.042516 3.2530763,28.390398 2.8125824,27.545806 2.7965925,27.239184 c -0.01599,-0.306622 0.939678,-1.189495 2.068957,-2.3556 0.1904622,-0.196673 1.4811535,-1.754201 3.2757744,-3.29027 1.0101253,-0.864595 2.1982561,-1.809636 3.4506521,-2.772335 z"
       id="path4169"
       inkscape:connector-curvature="0"
       sodipodi:nodetypes="sssssssscssssssssssssssscssscscssscsssssccsssssssscssssssssssssssscsssscssssssscssscssssssscsssssssssssssssssccssssc" />
  </g>
</svg>
