<?xml version="1.0"?><svg width="640" height="480" xmlns="http://www.w3.org/2000/svg">
 <title>purple winter hat</title>
 <g>
  <title>Layer 1</title>
  <g id="svg_1">
   <path d="m61.717239,309.895844c12.467697,-41.093872 33.815468,-76.228226 52.538742,-114.214737c18.475189,-37.495361 51.0439,-65.215179 84.448761,-87.921349c32.156906,-21.868629 67.81955,-49.713146 107.494873,-50.451397c41.006744,-0.76532 79.277832,9.781948 116.059753,26.935162c24.731049,11.537537 44.991486,22.790421 67.179169,39.015495c18.781921,13.715057 33.335205,35.276642 46.966431,54.273697c14.09137,19.595978 21.929993,44.600708 30.271484,67.339676c6.932373,18.926804 14.161316,45.936325 14.956116,66.179123c-173.305786,-0.392181 -346.609467,-0.76355 -519.915348,-1.15564" id="path24536" stroke-miterlimit="4" stroke-width="8.48162" stroke="#000000" fill="#ffff00"/>
   <path d="m310.88559,219.302582l37.923431,-34.23819l42.810425,36.612l41.618561,-37.647537l37.109009,37.884323l36.369293,-35.472183l33.646545,39.194992l14.167542,-15.463501c10.627991,25.961594 15.582703,40.767944 20.981262,67.776611l-255.212646,-7.91922c-16.57785,-4.703796 -224.0298,36.276123 -254.779175,42.176086c4.860077,-28.577423 16.406586,-54.12912 31.773933,-82.706589l39.415596,-40.346588l35.594757,33.27916l34.639572,-40.346573l33.820648,39.372116l40.494354,-35.302353c8.999817,11.412689 30.357178,35.410309 29.626892,33.147446z" id="path25782" stroke-miterlimit="4" stroke-width="9.834" stroke="#000000" fill-rule="evenodd" fill="#00bf00"/>
   <path d="m48.915298,310.41507c-19.614878,31.125946 -44.536628,71.294189 -36.342069,111.420563c3.9238,19.252502 21.649419,33.133667 38.01035,39.790863c3.705292,1.508667 18.735672,6.867828 21.384621,5.680206c11.608063,-5.182281 22.388657,-9.302063 34.555801,-12.740143c79.672287,-22.467377 161.669052,-20.70401 243.302567,-22.263336c42.86792,-0.805176 85.732971,2.027863 128.600677,3.535919c23.894287,0.828674 47.744385,1.809601 71.618164,3.019196c18.883179,0.963013 39.216003,-1.605042 57.859253,1.088806c37.40918,5.41571 8.43396,-98.414032 2.297852,-115.91922c-3.223572,-9.197357 -6.552551,-18.256531 -10.935303,-26.900055c-4.814514,-9.540192 -14.384216,-11.068939 -24.29187,-15.48172c-18.601563,-8.271118 -38.816589,-15.368591 -58.785034,-18.730194c-80.152313,-13.43576 -163.240295,-16.882156 -244.094543,-7.589828c-37.756973,4.33931 -75.825882,3.730759 -112.915543,13.755051c-19.107727,5.16098 -37.569229,11.172943 -55.94416,18.794128c-15.123688,6.280212 -45.41935,11.634613 -55.980652,25.402283" id="path313" stroke-miterlimit="4" stroke-width="12.48162" stroke="#000000" fill="#ff0000"/>
   <circle fill="#ff0000" stroke="#000000" stroke-width="9.834" stroke-dasharray="null" stroke-linejoin="null" stroke-linecap="null" cx="318.260466" cy="52.521381" r="41.766674" id="svg_2"/>
  </g>
 </g>
</svg>